# xmcd
#
# Track frame offsets: 
#        150
#        19289
#        33587
#        47910
#        65043
#        80460
#        95705
#        116111
#        135401
#        160221
#        172764
#        194645
#        204030
#        218400
#        231725
#        248542
#        259746
#        272088
#
# Disc length: 3784 seconds
#
# Revision: 2
# Processed by: cddbd v1.5.2PL0 Copyright (c) Steve Scherf et al.
# Submitted via: ExactAudioCopyFreeDBPlugin 1.0
#
DISCID=020ec612
DTITLE=Various Artist - Blick auf Country - Country Legends
DYEAR=2006
DGENRE=Country
TTITLE0=Bobby Gentry - Ode To Billie Jo
TTITLE1=Glen Campbell - Rhinestone Cowboy
TTITLE2=The Bellamy Brothers - If I Said You Had A Beautiful Body
TTITLE3=Nitty Gritty Dirt Band - All I Have To Do Is Dream
TTITLE4=Kenny Rogers - I Can't Unlove You
TTITLE5=Tanya Tucker - Delta Dawn
TTITLE6=Suzanne Klee - He Thinks I Still Care
TTITLE7=Bobby Bare - The Ballad Of Lucy Jordan
TTITLE8=Willie Nelson - Funny How Time Slips Away
TTITLE9=John Brack and The Cumberland Boys - Worry No More
TTITLE10=Charlie Daniels - Tennessee Two Step
TTITLE11=Elvis Presley - Blue Moon Of Kentucky
TTITLE12=Eddie Rabbitt - I Love A Rainy Night
TTITLE13=Tom Astor and The Bellamy Brothers - Redneck Riviera
TTITLE14=Jeff Turner - Brother Highway
TTITLE15=Patsy Cline - Half As Much
TTITLE16=June Carter Cash and Johnny Cash - Far Side Banks Of Jordan
TTITLE17=Sonny James - Only The Lonely
EXTD=YEAR: 2006
EXTT0=
EXTT1=
EXTT2=
EXTT3=
EXTT4=
EXTT5=
EXTT6=
EXTT7=
EXTT8=
EXTT9=
EXTT10=
EXTT11=
EXTT12=
EXTT13=
EXTT14=
EXTT15=
EXTT16=
EXTT17=
PLAYORDER=
